<svg width="48" height="49" viewBox="0 0 48 49" fill="none" xmlns="http://www.w3.org/2000/svg">
<path d="M5.5 17.3005V17.8005H6H42H42.5V17.3005V15.0505C42.5 13.9233 42.0522 12.8423 41.2552 12.0453C40.4582 11.2482 39.3772 10.8005 38.25 10.8005H9.75C8.62283 10.8005 7.54183 11.2482 6.7448 12.0453C5.94777 12.8423 5.5 13.9233 5.5 15.0505V17.3005ZM42.5 20.3005V19.8005H42H6H5.5V20.3005V34.5505C5.5 35.6776 5.94777 36.7586 6.7448 37.5557C7.54183 38.3527 8.62283 38.8005 9.75 38.8005H38.25C39.3772 38.8005 40.4582 38.3527 41.2552 37.5557C42.0522 36.7586 42.5 35.6776 42.5 34.5505V20.3005ZM3.5 15.0505C3.5 13.3929 4.15848 11.8032 5.33058 10.6311C6.50268 9.45896 8.0924 8.80048 9.75 8.80048H38.25C39.9076 8.80048 41.4973 9.45896 42.6694 10.6311C43.8415 11.8032 44.5 13.3929 44.5 15.0505V34.5505C44.5 36.2081 43.8415 37.7978 42.6694 38.9699C41.4973 40.142 39.9076 40.8005 38.25 40.8005H9.75C8.0924 40.8005 6.50268 40.142 5.33058 38.9699C4.15848 37.7978 3.5 36.2081 3.5 34.5505V15.0505ZM31.5 29.8005H36C36.2652 29.8005 36.5196 29.9058 36.7071 30.0934C36.8946 30.2809 37 30.5353 37 30.8005C37 31.0657 36.8946 31.32 36.7071 31.5076C36.5196 31.6951 36.2652 31.8005 36 31.8005H31.5C31.2348 31.8005 30.9804 31.6951 30.7929 31.5076C30.6054 31.32 30.5 31.0657 30.5 30.8005C30.5 30.5353 30.6054 30.2809 30.7929 30.0934C30.9804 29.9058 31.2348 29.8005 31.5 29.8005Z" fill="#4CAF4F" stroke="#4CAF4F"/>
</svg>
