<svg width="48" height="49" viewBox="0 0 48 49" fill="none" xmlns="http://www.w3.org/2000/svg">
<path d="M40 42.8005V38.8005C40 36.6787 39.1571 34.6439 37.6569 33.1436C36.1566 31.6433 34.1217 30.8005 32 30.8005H30C29.4696 30.8005 28.9609 30.5898 28.5858 30.2147C28.2107 29.8396 28 29.3309 28 28.8005V18.8005C28 17.7396 27.5786 16.7222 26.8284 15.972C26.0783 15.2219 25.0609 14.8005 24 14.8005C22.9391 14.8005 21.9217 15.2219 21.1716 15.972C20.4214 16.7222 20 17.7396 20 18.8005V36.8005L15.2 30.4005C14.8274 29.9037 14.3443 29.5005 13.7889 29.2228C13.2334 28.9451 12.621 28.8005 12 28.8005H11.132C9.402 28.8005 8 30.2025 8 31.9325C8 32.5005 8.154 33.0585 8.446 33.5445L14 42.8005M24 8.80048V6.80048V8.80048ZM36 20.8005H38H36ZM10 20.8005H12H10ZM14.686 11.4865L13.272 10.0725L14.686 11.4865ZM33.314 11.4865L34.728 10.0725L33.314 11.4865Z" fill="#4CAF4F"/>
<path d="M40 42.8005V38.8005C40 36.6787 39.1571 34.6439 37.6569 33.1436C36.1566 31.6433 34.1217 30.8005 32 30.8005H30C29.4696 30.8005 28.9609 30.5898 28.5858 30.2147C28.2107 29.8396 28 29.3309 28 28.8005V18.8005C28 17.7396 27.5786 16.7222 26.8284 15.972C26.0783 15.2219 25.0609 14.8005 24 14.8005V14.8005C22.9391 14.8005 21.9217 15.2219 21.1716 15.972C20.4214 16.7222 20 17.7396 20 18.8005V36.8005L15.2 30.4005C14.8274 29.9037 14.3443 29.5005 13.7889 29.2228C13.2334 28.9451 12.621 28.8005 12 28.8005H11.132C9.402 28.8005 8 30.2025 8 31.9325C8 32.5005 8.154 33.0585 8.446 33.5445L14 42.8005M24 8.80048V6.80048M36 20.8005H38M10 20.8005H12M14.686 11.4865L13.272 10.0725M33.314 11.4865L34.728 10.0725" stroke="#4CAF4F" stroke-width="2" stroke-linecap="round" stroke-linejoin="round"/>
</svg>
