<svg width="100" height="76" viewBox="0 0 100 76" fill="none" xmlns="http://www.w3.org/2000/svg">
<path d="M93.75 75.5C93.75 75.5 100 75.5 100 69.25C100 63 93.75 44.25 68.75 44.25C43.75 44.25 37.5 63 37.5 69.25C37.5 75.5 43.75 75.5 43.75 75.5H93.75ZM43.8875 69.25L43.75 69.225C43.7563 67.575 44.7938 62.7875 48.5 58.475C51.95 54.4313 58.0125 50.5 68.75 50.5C79.4813 50.5 85.5437 54.4375 89 58.475C92.7062 62.7875 93.7375 67.5813 93.75 69.225L93.7 69.2375L93.6125 69.25H43.8875ZM68.75 31.75C72.0652 31.75 75.2446 30.433 77.5888 28.0888C79.933 25.7446 81.25 22.5652 81.25 19.25C81.25 15.9348 79.933 12.7554 77.5888 10.4112C75.2446 8.06696 72.0652 6.75 68.75 6.75C65.4348 6.75 62.2554 8.06696 59.9112 10.4112C57.567 12.7554 56.25 15.9348 56.25 19.25C56.25 22.5652 57.567 25.7446 59.9112 28.0888C62.2554 30.433 65.4348 31.75 68.75 31.75ZM87.5 19.25C87.5 21.7123 87.015 24.1505 86.0727 26.4253C85.1305 28.7002 83.7494 30.7672 82.0083 32.5083C80.2672 34.2494 78.2002 35.6305 75.9253 36.5727C73.6505 37.515 71.2123 38 68.75 38C66.2877 38 63.8495 37.515 61.5747 36.5727C59.2998 35.6305 57.2328 34.2494 55.4917 32.5083C53.7506 30.7672 52.3695 28.7002 51.4273 26.4253C50.485 24.1505 50 21.7123 50 19.25C50 14.2772 51.9754 9.50806 55.4917 5.99175C59.0081 2.47544 63.7772 0.5 68.75 0.5C73.7228 0.5 78.4919 2.47544 82.0083 5.99175C85.5246 9.50806 87.5 14.2772 87.5 19.25ZM43.35 46C40.8485 45.2182 38.2719 44.7008 35.6625 44.4562C34.1961 44.3132 32.7234 44.2444 31.25 44.25C6.25 44.25 0 63 0 69.25C0 73.4167 2.08333 75.5 6.25 75.5H32.6C31.6739 73.5487 31.2119 71.4096 31.25 69.25C31.25 62.9375 33.6063 56.4875 38.0625 51.1C39.5813 49.2625 41.35 47.5437 43.35 46ZM30.75 50.5C27.0533 56.059 25.0553 62.5742 25 69.25H6.25C6.25 67.625 7.275 62.8125 11 58.475C14.4063 54.5 20.325 50.625 30.75 50.5063V50.5ZM9.375 22.375C9.375 17.4022 11.3504 12.6331 14.8667 9.11675C18.3831 5.60044 23.1522 3.625 28.125 3.625C33.0978 3.625 37.8669 5.60044 41.3833 9.11675C44.8996 12.6331 46.875 17.4022 46.875 22.375C46.875 27.3478 44.8996 32.1169 41.3833 35.6333C37.8669 39.1496 33.0978 41.125 28.125 41.125C23.1522 41.125 18.3831 39.1496 14.8667 35.6333C11.3504 32.1169 9.375 27.3478 9.375 22.375ZM28.125 9.875C24.8098 9.875 21.6304 11.192 19.2862 13.5362C16.942 15.8804 15.625 19.0598 15.625 22.375C15.625 25.6902 16.942 28.8696 19.2862 31.2138C21.6304 33.558 24.8098 34.875 28.125 34.875C31.4402 34.875 34.6196 33.558 36.9638 31.2138C39.308 28.8696 40.625 25.6902 40.625 22.375C40.625 19.0598 39.308 15.8804 36.9638 13.5362C34.6196 11.192 31.4402 9.875 28.125 9.875Z" fill="#4CAF4F"/>
</svg>
