<svg width="14" height="10" viewBox="0 0 14 10" fill="none" xmlns="http://www.w3.org/2000/svg">
<path d="M2.471 4.442C3.19575 4.442 3.785 3.85275 3.785 3.128C3.785 2.40325 3.19575 1.814 2.471 1.814C1.74625 1.814 1.157 2.40325 1.157 3.128C1.157 3.85275 1.74625 4.442 2.471 4.442ZM11.669 4.442C12.3938 4.442 12.983 3.85275 12.983 3.128C12.983 2.40325 12.3938 1.814 11.669 1.814C10.9442 1.814 10.355 2.40325 10.355 3.128C10.355 3.85275 10.9442 4.442 11.669 4.442ZM12.326 5.099H11.012C10.6507 5.099 10.3242 5.24477 10.086 5.48088C10.9134 5.93462 11.5006 6.75382 11.6279 7.727H12.983C13.3464 7.727 13.64 7.4334 13.64 7.07V6.413C13.64 5.68825 13.0508 5.099 12.326 5.099ZM7.07 5.099C8.34088 5.099 9.3695 4.07038 9.3695 2.7995C9.3695 1.52862 8.34088 0.5 7.07 0.5C5.79912 0.5 4.7705 1.52862 4.7705 2.7995C4.7705 4.07038 5.79912 5.099 7.07 5.099ZM8.6468 5.756H8.47639C8.04934 5.96131 7.57507 6.0845 7.07 6.0845C6.56493 6.0845 6.09271 5.96131 5.66361 5.756H5.4932C4.18741 5.756 3.128 6.81541 3.128 8.1212V8.7125C3.128 9.25658 3.56942 9.698 4.1135 9.698H10.0265C10.5706 9.698 11.012 9.25658 11.012 8.7125V8.1212C11.012 6.81541 9.95259 5.756 8.6468 5.756ZM4.05396 5.48088C3.8158 5.24477 3.48935 5.099 3.128 5.099H1.814C1.08925 5.099 0.5 5.68825 0.5 6.413V7.07C0.5 7.4334 0.793597 7.727 1.157 7.727H2.51001C2.63936 6.75382 3.22655 5.93462 4.05396 5.48088Z" fill="#4CAF4F"/>
</svg>
