<svg width="27" height="27" viewBox="0 0 27 27" fill="none" xmlns="http://www.w3.org/2000/svg">
<path d="M18.1213 13.14L25.5924 5.66886C26.5092 4.75205 26.5092 3.26559 25.5924 2.34803L23.932 0.68761C23.0152 -0.229203 21.5287 -0.229203 20.6111 0.68761L13.14 8.15875L5.66887 0.68761C4.75205 -0.229203 3.26559 -0.229203 2.34803 0.68761L0.68761 2.34803C-0.229203 3.26484 -0.229203 4.7513 0.68761 5.66886L8.15875 13.14L0.68761 20.6111C-0.229203 21.528 -0.229203 23.0144 0.68761 23.932L2.34803 25.5924C3.26484 26.5092 4.75205 26.5092 5.66887 25.5924L13.14 18.1213L20.6111 25.5924C21.528 26.5092 23.0152 26.5092 23.932 25.5924L25.5924 23.932C26.5092 23.0152 26.5092 21.5287 25.5924 20.6111L18.1213 13.14Z" fill="#E53835"/>
</svg>
