<svg width="27" height="23" viewBox="0 0 27 23" fill="none" xmlns="http://www.w3.org/2000/svg">
<path d="M0.938571 4.22357H25.3414C25.8598 4.22357 26.28 3.80338 26.28 3.285V0.938571C26.28 0.420187 25.8598 0 25.3414 0H0.938571C0.420187 0 0 0.420187 0 0.938571V3.285C0 3.80338 0.420187 4.22357 0.938571 4.22357ZM0.938571 13.6093H25.3414C25.8598 13.6093 26.28 13.1891 26.28 12.6707V10.3243C26.28 9.8059 25.8598 9.38571 25.3414 9.38571H0.938571C0.420187 9.38571 0 9.8059 0 10.3243V12.6707C0 13.1891 0.420187 13.6093 0.938571 13.6093ZM0.938571 22.995H25.3414C25.8598 22.995 26.28 22.5748 26.28 22.0564V19.71C26.28 19.1916 25.8598 18.7714 25.3414 18.7714H0.938571C0.420187 18.7714 0 19.1916 0 19.71V22.0564C0 22.5748 0.420187 22.995 0.938571 22.995Z" fill="#4CAF4F"/>
</svg>
